<?xml version="1.0" encoding="UTF-8" standalone="no"?>
<!-- Generator: Adobe Illustrator 27.1.1, SVG Export Plug-In . SVG Version: 6.00 Build 0)  -->

<svg
   version="1.1"
   x="0px"
   y="0px"
   viewBox="0 0 298.43713 184.3802"
   xml:space="preserve"
   id="svg1135"
   xmlns:xlink="http://www.w3.org/1999/xlink"
   xmlns="http://www.w3.org/2000/svg"
   xmlns:svg="http://www.w3.org/2000/svg"><defs
   id="defs1139"><rect
     x="259.65576"
     y="297.48639"
     id="rect26294" /><linearGradient
     id="linearGradient23697"><stop
       style="stop-color:#143365;stop-opacity:1;"
       offset="0"
       id="stop23693" /><stop
       style="stop-color:#3058e3;stop-opacity:1;"
       offset="1"
       id="stop23695" /></linearGradient><linearGradient
     id="linearGradient15809"><stop
       style="stop-color:#000000;stop-opacity:1;"
       offset="0"
       id="stop15807" /></linearGradient><linearGradient
     id="linearGradient15803"><stop
       style="stop-color:#000000;stop-opacity:1;"
       offset="0"
       id="stop15801" /></linearGradient><linearGradient
     id="linearGradient15793"><stop
       style="stop-color:#000000;stop-opacity:1;"
       offset="0"
       id="stop15789" /><stop
       style="stop-color:#000000;stop-opacity:0;"
       offset="1"
       id="stop15791" /></linearGradient><linearGradient
     id="linearGradient10624"><stop
       style="stop-color:#cb58f7;stop-opacity:1;"
       offset="0"
       id="stop10620" /><stop
       style="stop-color:#e4a697;stop-opacity:0.91874999;"
       offset="1"
       id="stop10622" /></linearGradient><linearGradient
     xlink:href="#linearGradient10624"
     id="linearGradient10626"
     x1="32.738018"
     y1="267.62347"
     x2="329.54059"
     y2="94.634666"
     gradientUnits="userSpaceOnUse" /><linearGradient
     xlink:href="#linearGradient23697"
     id="linearGradient17817"
     x1="32.738018"
     y1="267.62347"
     x2="329.54059"
     y2="94.634666"
     gradientUnits="userSpaceOnUse" /><linearGradient
     xlink:href="#linearGradient23697"
     id="linearGradient25224"
     x1="50.789997"
     y1="189.60501"
     x2="303.17999"
     y2="189.60501"
     gradientUnits="userSpaceOnUse" /><linearGradient
     xlink:href="#linearGradient23697"
     id="linearGradient41985"
     gradientUnits="userSpaceOnUse"
     x1="32.738018"
     y1="267.62347"
     x2="329.54059"
     y2="94.634666" /><linearGradient
     xlink:href="#linearGradient10624"
     id="linearGradient41987"
     gradientUnits="userSpaceOnUse"
     x1="32.738018"
     y1="267.62347"
     x2="329.54059"
     y2="94.634666" /><linearGradient
     xlink:href="#linearGradient10624"
     id="linearGradient41989"
     gradientUnits="userSpaceOnUse"
     x1="32.738018"
     y1="267.62347"
     x2="329.54059"
     y2="94.634666" /><linearGradient
     xlink:href="#linearGradient23697"
     id="linearGradient41991"
     gradientUnits="userSpaceOnUse"
     x1="32.738018"
     y1="267.62347"
     x2="329.54059"
     y2="94.634666" /><linearGradient
     xlink:href="#linearGradient23697"
     id="linearGradient41993"
     gradientUnits="userSpaceOnUse"
     x1="32.738018"
     y1="267.62347"
     x2="329.54059"
     y2="94.634666" /><linearGradient
     xlink:href="#linearGradient10624"
     id="linearGradient41995"
     gradientUnits="userSpaceOnUse"
     x1="32.738018"
     y1="267.62347"
     x2="329.54059"
     y2="94.634666" /><linearGradient
     xlink:href="#linearGradient10624"
     id="linearGradient41997"
     gradientUnits="userSpaceOnUse"
     x1="32.738018"
     y1="267.62347"
     x2="329.54059"
     y2="94.634666" /><linearGradient
     xlink:href="#linearGradient23697"
     id="linearGradient41999"
     gradientUnits="userSpaceOnUse"
     x1="32.738018"
     y1="267.62347"
     x2="329.54059"
     y2="94.634666" /><linearGradient
     xlink:href="#linearGradient23697"
     id="linearGradient42001"
     gradientUnits="userSpaceOnUse"
     x1="32.738018"
     y1="267.62347"
     x2="329.54059"
     y2="94.634666" /><linearGradient
     xlink:href="#linearGradient10624"
     id="linearGradient42003"
     gradientUnits="userSpaceOnUse"
     x1="32.738018"
     y1="267.62347"
     x2="329.54059"
     y2="94.634666" /><linearGradient
     xlink:href="#linearGradient10624"
     id="linearGradient42005"
     gradientUnits="userSpaceOnUse"
     x1="32.738018"
     y1="267.62347"
     x2="329.54059"
     y2="94.634666" /><linearGradient
     xlink:href="#linearGradient23697"
     id="linearGradient42007"
     gradientUnits="userSpaceOnUse"
     x1="32.738018"
     y1="267.62347"
     x2="329.54059"
     y2="94.634666" /><linearGradient
     xlink:href="#linearGradient23697"
     id="linearGradient42009"
     gradientUnits="userSpaceOnUse"
     x1="32.738018"
     y1="267.62347"
     x2="329.54059"
     y2="94.634666" /><linearGradient
     xlink:href="#linearGradient10624"
     id="linearGradient42011"
     gradientUnits="userSpaceOnUse"
     x1="32.738018"
     y1="267.62347"
     x2="329.54059"
     y2="94.634666" /><linearGradient
     xlink:href="#linearGradient10624"
     id="linearGradient42013"
     gradientUnits="userSpaceOnUse"
     x1="32.738018"
     y1="267.62347"
     x2="329.54059"
     y2="94.634666" /><linearGradient
     xlink:href="#linearGradient23697"
     id="linearGradient42015"
     gradientUnits="userSpaceOnUse"
     x1="32.738018"
     y1="267.62347"
     x2="329.54059"
     y2="94.634666" /><linearGradient
     xlink:href="#linearGradient23697"
     id="linearGradient42017"
     gradientUnits="userSpaceOnUse"
     x1="32.738018"
     y1="267.62347"
     x2="329.54059"
     y2="94.634666" /><linearGradient
     xlink:href="#linearGradient10624"
     id="linearGradient42019"
     gradientUnits="userSpaceOnUse"
     x1="32.738018"
     y1="267.62347"
     x2="329.54059"
     y2="94.634666" /><linearGradient
     xlink:href="#linearGradient10624"
     id="linearGradient42021"
     gradientUnits="userSpaceOnUse"
     x1="32.738018"
     y1="267.62347"
     x2="329.54059"
     y2="94.634666" /><linearGradient
     xlink:href="#linearGradient23697"
     id="linearGradient42023"
     gradientUnits="userSpaceOnUse"
     x1="32.738018"
     y1="267.62347"
     x2="329.54059"
     y2="94.634666" /><linearGradient
     xlink:href="#linearGradient23697"
     id="linearGradient42025"
     gradientUnits="userSpaceOnUse"
     x1="32.738018"
     y1="267.62347"
     x2="329.54059"
     y2="94.634666" /><linearGradient
     xlink:href="#linearGradient10624"
     id="linearGradient42027"
     gradientUnits="userSpaceOnUse"
     x1="32.738018"
     y1="267.62347"
     x2="329.54059"
     y2="94.634666" /><linearGradient
     xlink:href="#linearGradient10624"
     id="linearGradient42029"
     gradientUnits="userSpaceOnUse"
     x1="32.738018"
     y1="267.62347"
     x2="329.54059"
     y2="94.634666" /><linearGradient
     xlink:href="#linearGradient23697"
     id="linearGradient42031"
     gradientUnits="userSpaceOnUse"
     x1="32.738018"
     y1="267.62347"
     x2="329.54059"
     y2="94.634666" /><linearGradient
     xlink:href="#linearGradient23697"
     id="linearGradient42033"
     gradientUnits="userSpaceOnUse"
     x1="32.738018"
     y1="267.62347"
     x2="329.54059"
     y2="94.634666" /><linearGradient
     xlink:href="#linearGradient10624"
     id="linearGradient42035"
     gradientUnits="userSpaceOnUse"
     x1="32.738018"
     y1="267.62347"
     x2="329.54059"
     y2="94.634666" /><linearGradient
     xlink:href="#linearGradient10624"
     id="linearGradient42037"
     gradientUnits="userSpaceOnUse"
     x1="32.738018"
     y1="267.62347"
     x2="329.54059"
     y2="94.634666" /><linearGradient
     xlink:href="#linearGradient23697"
     id="linearGradient42039"
     gradientUnits="userSpaceOnUse"
     x1="32.738018"
     y1="267.62347"
     x2="329.54059"
     y2="94.634666" /><linearGradient
     xlink:href="#linearGradient23697"
     id="linearGradient42041"
     gradientUnits="userSpaceOnUse"
     x1="32.738018"
     y1="267.62347"
     x2="329.54059"
     y2="94.634666" /><linearGradient
     xlink:href="#linearGradient10624"
     id="linearGradient42043"
     gradientUnits="userSpaceOnUse"
     x1="32.738018"
     y1="267.62347"
     x2="329.54059"
     y2="94.634666" /><linearGradient
     xlink:href="#linearGradient10624"
     id="linearGradient42045"
     gradientUnits="userSpaceOnUse"
     x1="32.738018"
     y1="267.62347"
     x2="329.54059"
     y2="94.634666" /><linearGradient
     xlink:href="#linearGradient23697"
     id="linearGradient42047"
     gradientUnits="userSpaceOnUse"
     x1="32.738018"
     y1="267.62347"
     x2="329.54059"
     y2="94.634666" /><linearGradient
     xlink:href="#linearGradient23697"
     id="linearGradient42049"
     gradientUnits="userSpaceOnUse"
     x1="32.738018"
     y1="267.62347"
     x2="329.54059"
     y2="94.634666" /><linearGradient
     xlink:href="#linearGradient10624"
     id="linearGradient42051"
     gradientUnits="userSpaceOnUse"
     x1="32.738018"
     y1="267.62347"
     x2="329.54059"
     y2="94.634666" /><linearGradient
     xlink:href="#linearGradient10624"
     id="linearGradient42053"
     gradientUnits="userSpaceOnUse"
     x1="32.738018"
     y1="267.62347"
     x2="329.54059"
     y2="94.634666" /><linearGradient
     xlink:href="#linearGradient23697"
     id="linearGradient42055"
     gradientUnits="userSpaceOnUse"
     x1="32.738018"
     y1="267.62347"
     x2="329.54059"
     y2="94.634666" /><linearGradient
     xlink:href="#linearGradient23697"
     id="linearGradient42057"
     gradientUnits="userSpaceOnUse"
     x1="32.738018"
     y1="267.62347"
     x2="329.54059"
     y2="94.634666" /><linearGradient
     xlink:href="#linearGradient10624"
     id="linearGradient42059"
     gradientUnits="userSpaceOnUse"
     x1="32.738018"
     y1="267.62347"
     x2="329.54059"
     y2="94.634666" /><linearGradient
     xlink:href="#linearGradient10624"
     id="linearGradient42061"
     gradientUnits="userSpaceOnUse"
     x1="32.738018"
     y1="267.62347"
     x2="329.54059"
     y2="94.634666" /><linearGradient
     xlink:href="#linearGradient23697"
     id="linearGradient42063"
     gradientUnits="userSpaceOnUse"
     x1="32.738018"
     y1="267.62347"
     x2="329.54059"
     y2="94.634666" /><linearGradient
     xlink:href="#linearGradient23697"
     id="linearGradient42065"
     gradientUnits="userSpaceOnUse"
     x1="32.738018"
     y1="267.62347"
     x2="329.54059"
     y2="94.634666" /><linearGradient
     xlink:href="#linearGradient10624"
     id="linearGradient42067"
     gradientUnits="userSpaceOnUse"
     x1="32.738018"
     y1="267.62347"
     x2="329.54059"
     y2="94.634666" /><linearGradient
     xlink:href="#linearGradient10624"
     id="linearGradient42069"
     gradientUnits="userSpaceOnUse"
     x1="32.738018"
     y1="267.62347"
     x2="329.54059"
     y2="94.634666" /><linearGradient
     xlink:href="#linearGradient23697"
     id="linearGradient42071"
     gradientUnits="userSpaceOnUse"
     x1="32.738018"
     y1="267.62347"
     x2="329.54059"
     y2="94.634666" /><linearGradient
     xlink:href="#linearGradient23697"
     id="linearGradient42073"
     gradientUnits="userSpaceOnUse"
     x1="32.738018"
     y1="267.62347"
     x2="329.54059"
     y2="94.634666" /><linearGradient
     xlink:href="#linearGradient10624"
     id="linearGradient42075"
     gradientUnits="userSpaceOnUse"
     x1="32.738018"
     y1="267.62347"
     x2="329.54059"
     y2="94.634666" /><linearGradient
     xlink:href="#linearGradient10624"
     id="linearGradient42077"
     gradientUnits="userSpaceOnUse"
     x1="32.738018"
     y1="267.62347"
     x2="329.54059"
     y2="94.634666" /><linearGradient
     xlink:href="#linearGradient23697"
     id="linearGradient42079"
     gradientUnits="userSpaceOnUse"
     x1="32.738018"
     y1="267.62347"
     x2="329.54059"
     y2="94.634666" /><linearGradient
     xlink:href="#linearGradient23697"
     id="linearGradient42081"
     gradientUnits="userSpaceOnUse"
     x1="32.738018"
     y1="267.62347"
     x2="329.54059"
     y2="94.634666" /><linearGradient
     xlink:href="#linearGradient10624"
     id="linearGradient42083"
     gradientUnits="userSpaceOnUse"
     x1="32.738018"
     y1="267.62347"
     x2="329.54059"
     y2="94.634666" /><linearGradient
     xlink:href="#linearGradient10624"
     id="linearGradient42085"
     gradientUnits="userSpaceOnUse"
     x1="32.738018"
     y1="267.62347"
     x2="329.54059"
     y2="94.634666" /><linearGradient
     xlink:href="#linearGradient23697"
     id="linearGradient42087"
     gradientUnits="userSpaceOnUse"
     x1="32.738018"
     y1="267.62347"
     x2="329.54059"
     y2="94.634666" /><linearGradient
     xlink:href="#linearGradient23697"
     id="linearGradient42089"
     gradientUnits="userSpaceOnUse"
     x1="32.738018"
     y1="267.62347"
     x2="329.54059"
     y2="94.634666" /><linearGradient
     xlink:href="#linearGradient10624"
     id="linearGradient42091"
     gradientUnits="userSpaceOnUse"
     x1="32.738018"
     y1="267.62347"
     x2="329.54059"
     y2="94.634666" /><linearGradient
     xlink:href="#linearGradient10624"
     id="linearGradient42093"
     gradientUnits="userSpaceOnUse"
     x1="32.738018"
     y1="267.62347"
     x2="329.54059"
     y2="94.634666" /><linearGradient
     xlink:href="#linearGradient23697"
     id="linearGradient42095"
     gradientUnits="userSpaceOnUse"
     x1="32.738018"
     y1="267.62347"
     x2="329.54059"
     y2="94.634666" /><linearGradient
     xlink:href="#linearGradient23697"
     id="linearGradient42097"
     gradientUnits="userSpaceOnUse"
     x1="32.738018"
     y1="267.62347"
     x2="329.54059"
     y2="94.634666" /><linearGradient
     xlink:href="#linearGradient10624"
     id="linearGradient42099"
     gradientUnits="userSpaceOnUse"
     x1="32.738018"
     y1="267.62347"
     x2="329.54059"
     y2="94.634666" /><linearGradient
     xlink:href="#linearGradient10624"
     id="linearGradient42101"
     gradientUnits="userSpaceOnUse"
     x1="32.738018"
     y1="267.62347"
     x2="329.54059"
     y2="94.634666" /><linearGradient
     xlink:href="#linearGradient23697"
     id="linearGradient42103"
     gradientUnits="userSpaceOnUse"
     x1="32.738018"
     y1="267.62347"
     x2="329.54059"
     y2="94.634666" /><linearGradient
     xlink:href="#linearGradient23697"
     id="linearGradient42105"
     gradientUnits="userSpaceOnUse"
     x1="32.738018"
     y1="267.62347"
     x2="329.54059"
     y2="94.634666" /><linearGradient
     xlink:href="#linearGradient10624"
     id="linearGradient42107"
     gradientUnits="userSpaceOnUse"
     x1="32.738018"
     y1="267.62347"
     x2="329.54059"
     y2="94.634666" /><linearGradient
     xlink:href="#linearGradient10624"
     id="linearGradient42109"
     gradientUnits="userSpaceOnUse"
     x1="32.738018"
     y1="267.62347"
     x2="329.54059"
     y2="94.634666" /><linearGradient
     xlink:href="#linearGradient23697"
     id="linearGradient42111"
     gradientUnits="userSpaceOnUse"
     x1="32.738018"
     y1="267.62347"
     x2="329.54059"
     y2="94.634666" /><linearGradient
     xlink:href="#linearGradient23697"
     id="linearGradient42113"
     gradientUnits="userSpaceOnUse"
     x1="32.738018"
     y1="267.62347"
     x2="329.54059"
     y2="94.634666" /><linearGradient
     xlink:href="#linearGradient10624"
     id="linearGradient42115"
     gradientUnits="userSpaceOnUse"
     x1="32.738018"
     y1="267.62347"
     x2="329.54059"
     y2="94.634666" /><linearGradient
     xlink:href="#linearGradient10624"
     id="linearGradient42117"
     gradientUnits="userSpaceOnUse"
     x1="32.738018"
     y1="267.62347"
     x2="329.54059"
     y2="94.634666" /><linearGradient
     xlink:href="#linearGradient23697"
     id="linearGradient42119"
     gradientUnits="userSpaceOnUse"
     x1="32.738018"
     y1="267.62347"
     x2="329.54059"
     y2="94.634666" /><linearGradient
     xlink:href="#linearGradient23697"
     id="linearGradient42121"
     gradientUnits="userSpaceOnUse"
     x1="50.789997"
     y1="189.60501"
     x2="303.17999"
     y2="189.60501" /><linearGradient
     xlink:href="#linearGradient23697"
     id="linearGradient42123"
     gradientUnits="userSpaceOnUse"
     x1="50.789997"
     y1="189.60501"
     x2="303.17999"
     y2="189.60501" /><linearGradient
     xlink:href="#linearGradient23697"
     id="linearGradient42125"
     gradientUnits="userSpaceOnUse"
     x1="50.789997"
     y1="189.60501"
     x2="303.17999"
     y2="189.60501" /><linearGradient
     xlink:href="#linearGradient23697"
     id="linearGradient42127"
     gradientUnits="userSpaceOnUse"
     x1="50.789997"
     y1="189.60501"
     x2="303.17999"
     y2="189.60501" /><linearGradient
     xlink:href="#linearGradient23697"
     id="linearGradient42129"
     gradientUnits="userSpaceOnUse"
     x1="50.789997"
     y1="189.60501"
     x2="303.17999"
     y2="189.60501" /><linearGradient
     xlink:href="#linearGradient23697"
     id="linearGradient42131"
     gradientUnits="userSpaceOnUse"
     x1="50.789997"
     y1="189.60501"
     x2="303.17999"
     y2="189.60501" /><linearGradient
     xlink:href="#linearGradient23697"
     id="linearGradient42133"
     gradientUnits="userSpaceOnUse"
     x1="50.789997"
     y1="189.60501"
     x2="303.17999"
     y2="189.60501" /><linearGradient
     xlink:href="#linearGradient23697"
     id="linearGradient42135"
     gradientUnits="userSpaceOnUse"
     x1="50.789997"
     y1="189.60501"
     x2="303.17999"
     y2="189.60501" /><linearGradient
     xlink:href="#linearGradient23697"
     id="linearGradient42137"
     gradientUnits="userSpaceOnUse"
     x1="50.789997"
     y1="189.60501"
     x2="303.17999"
     y2="189.60501" /><linearGradient
     xlink:href="#linearGradient23697"
     id="linearGradient42139"
     gradientUnits="userSpaceOnUse"
     x1="50.789997"
     y1="189.60501"
     x2="303.17999"
     y2="189.60501" /><linearGradient
     xlink:href="#linearGradient23697"
     id="linearGradient42141"
     gradientUnits="userSpaceOnUse"
     x1="50.789997"
     y1="189.60501"
     x2="303.17999"
     y2="189.60501" /><linearGradient
     xlink:href="#linearGradient23697"
     id="linearGradient42143"
     gradientUnits="userSpaceOnUse"
     x1="50.789997"
     y1="189.60501"
     x2="303.17999"
     y2="189.60501" /><linearGradient
     xlink:href="#linearGradient23697"
     id="linearGradient42145"
     gradientUnits="userSpaceOnUse"
     x1="50.789997"
     y1="189.60501"
     x2="303.17999"
     y2="189.60501" /></defs>
<style
   type="text/css"
   id="style1067">
	.st0{fill:#EE3368;}
	.st1{fill:#FFFFFF;}
</style>

<g
   id="Layer_3"
   transform="translate(-32.959463,-94.50273)">
	
	
	
	
	
	
	
	
	
	
	
	
	
	
	
	
	
	
	
	
	
	
	
	
	
	
	
	
	
	
	
<g
   id="g41799"><g
     id="text"
     style="fill:url(#linearGradient10626);stroke:url(#linearGradient17817);stroke-width:4.192;stroke-linecap:square;paint-order:stroke fill markers"><g
       id="path1072"
       style="fill:url(#linearGradient41989);stroke:url(#linearGradient41991)"><path
         style="color:#000000;fill:url(#linearGradient41985);stroke:none;-inkscape-stroke:none"
         d="m 70.357422,96.164062 c -2.398483,-0.01934 -4.372768,1.975976 -4.353516,4.363278 v 0.004 0.004 l 0.460938,39.78515 c 0,0.81924 0.239094,1.65435 0.726562,2.36524 0.420891,0.61647 1.020127,1.2948 1.851563,1.89453 l 0.0039,0.002 0.002,0.002 c 2.483881,1.78012 5.125898,1.49315 6.050781,1.34571 0.01977,-0.003 0.03177,-0.004 0.04492,-0.004 1.694557,0.005 8.159438,0.0681 14.330078,0.10938 3.08532,0.0206 6.101142,0.035 8.431641,0.0352 1.165249,8e-5 2.158561,-0.003 2.910161,-0.0117 0.75159,-0.009 1.04073,0.0154 1.61914,-0.0586 l 0.0137,-0.002 0.0117,-0.002 c 0.73236,-0.10253 1.31836,-0.30273 1.31836,-0.30273 l 0.0215,-0.008 0.0215,-0.008 c 0,0 0.2304,-0.0793 0.48632,-0.18164 l 0.0371,-0.0156 0.0352,-0.0156 c 0.32695,-0.14531 2.45825,-1.11724 4.89062,-3.33593 2.43238,-2.21869 5.09489,-5.71219 5.84961,-10.60938 v -0.002 c 1.0669,-6.94059 -2.0345,-13.80298 -6.5664,-16.85352 l -0.004,-0.002 c -2.39332,-1.61784 -4.87029,-2.22875 -6.78515,-2.44531 h -0.002 -0.002 c -0.11473,-0.0128 -0.14164,-0.0536 -0.13867,-0.10352 v -0.002 -0.004 c 0.17665,-3.16875 -0.14558,-8.8684 -4.580082,-12.812498 -1.644333,-1.464297 -3.429027,-2.282407 -4.931641,-2.740235 l -0.0039,-0.002 h -0.0059 C 91.702836,96.433117 91.298261,96.376099 90.892578,96.375 84.045841,96.305033 77.198049,96.234029 70.361328,96.164062 h -0.002 z m -0.03516,4.191408 c 6.838717,0.07 13.688418,0.14095 20.537109,0.21094 h 0.0098 0.01172 c 0.0081,0 0.01186,0.002 0.01367,0.002 5.1e-4,7e-5 0.0045,1.7e-4 0.0039,0 1.05536,0.3226 2.26473,0.88437 3.357422,1.85742 h 0.002 c 2.964332,2.63585 3.323016,6.87631 3.179688,9.44727 -0.132366,2.30522 1.636527,4.26099 3.857419,4.50976 1.44408,0.16332 3.2247,0.61375 4.91016,1.75391 l 0.004,0.002 h 0.002 c 2.60508,1.75132 5.56024,7.58561 4.76758,12.74219 -0.57528,3.7328 -2.58309,6.37354 -4.53321,8.15234 -1.92902,1.75956 -3.8426,2.63209 -3.74218,2.58789 -0.11185,0.0432 -0.21709,0.0823 -0.23829,0.0898 -0.0165,0.005 -0.32087,0.0936 -0.58007,0.13086 0.22962,-0.0306 -0.40832,0.017 -1.11719,0.0254 -0.72126,0.009 -1.703221,0.0118 -2.859376,0.0117 -2.312309,-1.6e-4 -5.325326,-0.0145 -8.40625,-0.0352 -6.161847,-0.0412 -12.580263,-0.10427 -14.345703,-0.10938 h -0.0039 -0.002 c -0.237487,0 -0.481405,0.0212 -0.699219,0.0547 h -0.0059 l -0.0059,0.002 c -0.454577,0.0725 -1.8299,0.1835 -2.945312,-0.61329 -0.385449,-0.27856 -0.663225,-0.59746 -0.841797,-0.85937 6.14e-4,0.001 0.0039,0.0111 0.0039,0.002 v -0.0117 l -0.460938,-39.8164 c -7.47e-4,-0.0927 0.04544,-0.13738 0.126954,-0.13672 z"
         id="path24621" /><path
         style="color:#000000;fill:url(#linearGradient41987);stroke:none;-inkscape-stroke:none"
         d="m 68.1,100.51 0.46,39.81 c 0,0.42 0.12,0.83 0.36,1.18 0.3,0.44 0.74,0.94 1.35,1.38 1.8,1.29 3.81,1.09 4.5,0.98 0.13,-0.02 0.25,-0.03 0.38,-0.03 3.46,0.01 25.77,0.25 27.02,0.09 0.5,-0.07 0.96,-0.22 0.96,-0.22 0,0 0.2,-0.07 0.4,-0.15 0.18,-0.08 8.19,-3.72 9.52,-12.35 0.93,-6.05 -2.1,-12.4 -5.67,-14.8 -2.04,-1.38 -4.17,-1.91 -5.85,-2.1 -1.17,-0.13 -2.07,-1.13 -2,-2.31 0.16,-2.87 -0.18,-7.84 -3.88,-11.13 -1.37,-1.22 -2.87,-1.91 -4.15,-2.3 -0.2,-0.06 -0.41,-0.09 -0.62,-0.09 -6.85,-0.07 -13.7,-0.14 -20.54,-0.21 -1.24,-0.01 -2.25,1.01 -2.24,2.25 z"
         id="path24623" /></g><g
       id="path1074"
       style="fill:url(#linearGradient41997);stroke:url(#linearGradient41999)"><path
         style="color:#000000;fill:url(#linearGradient41993);stroke:none;-inkscape-stroke:none"
         d="m 119.30078,97.193359 c -2.71786,0 -4.97656,2.245017 -4.97656,4.957031 v 38.92969 c 0,2.71201 2.24116,4.96679 4.96484,4.96679 h 31.97071 c 2.71201,0 4.96679,-2.24311 4.96679,-4.96679 v -23.94922 c 0,-2.67966 -2.17708,-4.89803 -4.84179,-4.9668 h -0.004 -0.004 c -3.07454,-0.0701 -6.14353,-0.12932 -9.20898,-0.19922 h -0.004 -0.004 c -0.43637,-0.008 -0.74131,-0.31828 -0.74414,-0.75781 v -0.004 -0.004 c -0.0299,-3.02279 -0.0501,-6.05004 -0.0801,-9.08203 -0.0172,-2.701959 -2.26363,-4.923831 -4.9668,-4.923831 z m 0,4.193361 h 17.06836 c 0.45683,0 0.7726,0.31782 0.77539,0.75586 v 0.004 0.004 c 0.0299,3.02344 0.0501,6.05134 0.0801,9.08399 0.0172,2.66046 2.19184,4.87032 4.85547,4.92187 3.06997,0.07 6.1344,0.12944 9.19531,0.19922 0.43528,0.0112 0.75781,0.33505 0.75781,0.77539 v 23.94922 c 0,0.45631 -0.32545,0.77344 -0.77343,0.77344 h -31.97071 c -0.45631,0 -0.77344,-0.32546 -0.77343,-0.77344 v -38.92969 c 0,-0.44798 0.30302,-0.76367 0.78515,-0.76367 z"
         id="path24627" /><path
         style="color:#000000;fill:url(#linearGradient41995);stroke:none;-inkscape-stroke:none"
         d="m 116.42,102.15 v 38.93 c 0,1.58 1.28,2.87 2.87,2.87 h 31.97 c 1.58,0 2.87,-1.28 2.87,-2.87 v -23.95 c 0,-1.56 -1.25,-2.83 -2.8,-2.87 -3.07,-0.07 -6.14,-0.13 -9.21,-0.2 -1.55,-0.03 -2.79,-1.29 -2.8,-2.84 -0.03,-3.03 -0.05,-6.06 -0.08,-9.09 -0.01,-1.57 -1.29,-2.84 -2.87,-2.84 H 119.3 c -1.6,0 -2.88,1.28 -2.88,2.86 z"
         id="path24629" /></g><g
       id="path1078"
       style="fill:url(#linearGradient42005);stroke:url(#linearGradient42007)"><path
         style="color:#000000;fill:url(#linearGradient42001);stroke:none;-inkscape-stroke:none"
         d="m 179.38477,95.347656 c -3.07917,0.07607 -6.12499,1.876916 -7.71875,5.064454 l -18.27149,36.55078 c -1.99961,3.99922 0.7368,9.0646 5.21094,9.0332 h 0.002 l 43.86328,-0.39062 h 0.002 c 4.54361,-0.047 7.18427,-5.29534 4.99218,-9.26758 v -0.002 l -20.13281,-36.30469 -0.002,-0.004 c -1.73483,-3.105079 -4.86615,-4.755753 -7.94531,-4.679684 z m 0.10546,4.189453 c 1.57583,-0.03893 3.15452,0.700241 4.17969,2.535161 l 20.12695,36.29492 c 0.78393,1.42673 -0.11396,3.03389 -1.36914,3.04687 l -43.85156,0.39063 c -1.22586,0.009 -2.15203,-1.52602 -1.43164,-2.9668 l 18.26953,-36.55078 c 0.94623,-1.89246 2.50034,-2.71107 4.07617,-2.750001 z"
         id="path24633" /><path
         style="color:#000000;fill:url(#linearGradient42003);stroke:none;-inkscape-stroke:none"
         d="m 173.54,101.35 -18.27,36.55 c -1.36,2.72 0.47,6.02 3.32,6 l 43.86,-0.39 c 2.9,-0.03 4.67,-3.46 3.18,-6.16 l -20.13,-36.3 c -2.76,-4.94 -9.42,-4.78 -11.96,0.3 z"
         id="path24635" /></g><g
       id="path1080"
       style="fill:url(#linearGradient42013);stroke:url(#linearGradient42015)"><path
         style="color:#000000;fill:url(#linearGradient42009);stroke:none;-inkscape-stroke:none"
         d="m 229.76953,94.556641 c -2.55502,-0.122153 -9.22529,-0.37633 -15.72266,3.640625 l -0.002,0.002 h -0.002 c -3.15473,1.960754 -5.24053,4.260474 -6.22852,5.457034 -2.31464,2.80365 -3.59859,5.54129 -4.30664,7.42578 l -0.0312,0.084 -0.0234,0.0859 c -0.83502,2.9654 -2.5694,10.73598 0.81446,19.40039 1.01747,2.61484 3.44057,8.60928 9.67187,12.64649 7.13911,4.63435 14.69766,3.71273 18.26563,3.29297 2.97885,-0.34987 15.15211,-1.67578 21.64844,-11.80078 0.56678,-0.87581 2.13925,-3.4268 3.13476,-6.7461 0.99705,-3.32442 1.44179,-7.57712 -0.74414,-11.4375 v -0.002 h -0.002 c -1.37424,-2.42012 -3.32024,-3.87522 -4.73633,-4.71094 l -0.0547,-0.0312 -0.0547,-0.0293 c -0.27606,-0.14157 -1.68444,-0.88356 -3.59179,-1.23632 0.94642,-1.36909 1.29922,-2.88156 1.29492,-4.08789 -0.005,-1.36512 -0.29949,-2.41395 -0.42578,-2.82813 -3.5e-4,-10e-4 3.5e-4,-0.003 0,-0.004 -1.39021,-4.615337 -6.1016,-6.663105 -10.1836,-7.779296 -4.08512,-1.117046 -7.97759,-1.305768 -8.71875,-1.341796 z m -0.20117,4.1875 c 0.69885,0.03397 4.27654,0.229314 7.81641,1.197265 3.53986,0.967954 6.60352,2.704004 7.27734,4.951174 l 0.002,0.004 0.002,0.006 c 0.054,0.17698 0.23955,0.88501 0.24218,1.62305 0.003,0.73733 -0.1568,1.40161 -0.57031,1.87891 -0.69698,0.79512 -2.50781,1.28206 -4.69922,0.5332 l 0.32617,0.14453 c -4.49504,-2.45841 -9.64576,-1.72901 -11.80664,1.83008 -1.66894,2.74979 -0.56798,5.55417 -0.32226,6.24219 l 0.11328,0.3164 0.20703,0.26563 c 0.25399,0.32656 2.51428,3.23857 6.45117,3.2793 h 0.002 0.002 c 3.06909,0.0272 5.8882,-1.71223 7.35351,-4.43165 l -0.0898,0.1504 c 0.3302,-0.50632 0.77639,-1.01778 1.39844,-1.40821 l 0.002,-0.002 c 2.32378,-1.46141 5.85899,0.0783 6.15625,0.22461 1.01586,0.6075 2.2955,1.59392 3.16602,3.12695 1.40165,2.47884 1.18752,5.4549 0.375,8.16406 -0.81295,2.71058 -2.19713,4.99362 -2.64258,5.68164 l -0.002,0.004 -0.002,0.002 c -5.28366,8.23498 -15.63019,9.55026 -18.61133,9.90039 -3.57202,0.42024 -9.69325,1.11916 -15.49414,-2.64648 h -0.002 c -5.06684,-3.28223 -7.06223,-8.12486 -8.04492,-10.65039 v -0.002 l -0.002,-0.002 c -2.87172,-7.35306 -1.43435,-14.02601 -0.70312,-16.64843 0.5971,-1.57336 1.65984,-3.83074 3.57812,-6.1543 0.81148,-0.98279 2.60262,-2.94192 5.20508,-4.56055 5.34169,-3.302459 10.8508,-3.137373 13.31641,-3.019529 z m 4.37695,13.226559 c 1.11265,-0.16979 2.52729,-0.0217 4.00977,0.78907 l 0.15625,0.0859 0.16992,0.0586 c 0.43944,0.15017 0.88828,0.19859 1.33398,0.29492 -0.40168,0.43008 -0.98413,0.83844 -1.25,1.24609 l -0.0488,0.0723 -0.041,0.0781 c -0.75402,1.39936 -2.17346,2.23986 -3.62305,2.22852 -7.3e-4,-1e-5 -0.001,10e-6 -0.002,0 -1.61824,-0.0177 -2.57014,-1.00133 -2.93555,-1.42383 -0.15682,-0.60099 -0.34308,-1.70217 0.0273,-2.3125 0.27956,-0.46045 1.09048,-0.94739 2.20312,-1.11719 z"
         id="path24639" /><path
         style="color:#000000;fill:url(#linearGradient42011);stroke:none;-inkscape-stroke:none"
         d="m 238.96,110.92 c -3.73,-2.04 -7.65,-1.16 -9.01,1.08 -1.05,1.73 -0.34,3.89 -0.14,4.45 0.21,0.27 1.92,2.44 4.82,2.47 2.26,0.02 4.38,-1.27 5.49,-3.33 0.45,-0.69 1.1,-1.45 2.04,-2.04 3.53,-2.22 7.89,-0.05 8.28,0.15 1.22,0.72 2.85,1.95 3.98,3.94 3.59,6.34 -1.32,14.46 -2.33,16.02 -5.89,9.18 -17.15,10.5 -20.13,10.85 -3.57,0.42 -10.41,1.23 -16.88,-2.97 -5.65,-3.66 -7.86,-9.08 -8.86,-11.65 -3.14,-8.04 -1.53,-15.3 -0.75,-18.07 0.65,-1.73 1.83,-4.25 3.96,-6.83 0.9,-1.09 2.84,-3.22 5.72,-5.01 5.92,-3.66 12.01,-3.45 14.52,-3.33 1.44,0.07 14.94,0.77 17,7.64 0.18,0.59 0.96,3.52 -0.75,5.49 -1.44,1.65 -4.18,2.09 -6.96,1.14 z"
         id="path24641" /></g><g
       id="path1082"
       style="fill:url(#linearGradient42021);stroke:url(#linearGradient42023)"><path
         style="color:#000000;fill:url(#linearGradient42017);stroke:none;-inkscape-stroke:none"
         d="m 264.25195,95.333984 c -3.87896,0.01411 -7.06836,3.202831 -7.06836,7.085936 v 37.33985 c 0,3.9478 3.29658,7.16081 7.23243,7.07617 h 0.002 c 12.27996,-0.28 24.56959,-0.55985 36.84961,-0.83985 l 0.23437,-0.006 0.22657,-0.0566 c 0.10431,-0.0261 3.30885,-0.7724 4.57031,-3.83593 0.95058,-2.30856 0.15352,-4.41679 0.0234,-4.76368 l -0.0527,-0.14062 -0.0723,-0.13281 c -3.10755,-5.65278 -6.20737,-11.30692 -9.31641,-16.96289 -0.24777,-0.67994 -0.2378,-1.45557 0.0566,-2.14258 l 5.53516,-12.71875 c 2.00096,-4.60361 -1.46983,-9.902346 -6.49219,-9.902346 h -31.72461 z m 0.0156,4.191407 h 31.71289 c 2.15763,0 3.50552,2.062669 2.64648,4.039059 h 0.002 l -5.54297,12.73438 -0.002,0.006 c -0.72046,1.68107 -0.7814,3.58854 -0.12304,5.32031 l 0.0527,0.13672 0.0703,0.12891 c 3.10685,5.65149 6.20417,11.30429 9.3125,16.95898 0.11236,0.30323 0.32697,0.91995 0.0254,1.65234 -0.38376,0.93201 -1.20643,1.20882 -1.57617,1.31055 -12.17078,0.27751 -24.35082,0.55452 -36.52148,0.83203 -1.64415,0.0354 -2.94727,-1.23258 -2.94727,-2.88476 v -37.33985 c 0,-1.61689 1.2696,-2.888635 2.89063,-2.894529 z"
         id="path24645" /><path
         style="color:#000000;fill:url(#linearGradient42019);stroke:none;-inkscape-stroke:none"
         d="m 259.28,102.42 v 37.34 c 0,2.8 2.3,5.04 5.09,4.98 12.28,-0.28 24.57,-0.56 36.85,-0.84 0.2,-0.05 2.3,-0.56 3.14,-2.6 0.63,-1.53 0.12,-2.91 0,-3.23 -3.15,-5.73 -6.29,-11.46 -9.44,-17.19 -0.46,-1.21 -0.42,-2.56 0.09,-3.75 l 5.54,-12.73 c 1.43,-3.29 -0.98,-6.97 -4.57,-6.97 h -31.72 c -2.75,0.01 -4.98,2.24 -4.98,4.99 z"
         id="path24647" /></g><g
       id="path1090"
       style="fill:url(#linearGradient42029);stroke:url(#linearGradient42031)"><path
         style="color:#000000;fill:url(#linearGradient42025);stroke:none;-inkscape-stroke:none"
         d="m 201.27148,154.63477 c -3.87896,0.0141 -7.06835,3.20283 -7.06836,7.08593 v 37.33985 c 0,3.9478 3.29658,7.15886 7.23243,7.07422 h 0.002 c 12.27996,-0.28 24.5696,-0.55985 36.84961,-0.83985 l 0.23437,-0.004 0.22657,-0.0566 c 0.10431,-0.0261 3.30885,-0.7724 4.57031,-3.83593 0.95058,-2.30856 0.15352,-4.41679 0.0234,-4.76367 l -0.0527,-0.14258 -0.0723,-0.13282 c -3.10825,-5.65404 -6.20666,-11.30955 -9.31641,-16.96679 -0.24561,-0.67861 -0.23699,-1.45158 0.0566,-2.13672 l -0.006,0.01 5.54102,-12.73046 c 2.00096,-4.60361 -1.46983,-9.90039 -6.49219,-9.90039 h -31.72461 z m 0.0156,4.1914 H 233 c 2.15763,0 3.50748,2.06268 2.64844,4.03906 l -5.54297,12.73438 -0.002,0.004 c -0.72046,1.68107 -0.78141,3.5905 -0.12305,5.32226 l 0.0527,0.13672 0.0703,0.12695 c 3.10754,5.65277 6.20541,11.30693 9.31445,16.96289 0.11252,0.30408 0.32431,0.91971 0.0234,1.65039 -0.38471,0.9343 -1.20995,1.20958 -1.57813,1.31055 -12.16949,0.27748 -24.34821,0.55456 -36.51758,0.83203 -1.64414,0.0354 -2.94922,-1.23257 -2.94922,-2.88476 V 161.7207 c 0,-1.61688 1.2696,-2.88863 2.89063,-2.89453 z"
         id="path24651" /><path
         style="color:#000000;fill:url(#linearGradient42027);stroke:none;-inkscape-stroke:none"
         d="m 196.3,161.72 v 37.34 c 0,2.8 2.3,5.04 5.09,4.98 12.28,-0.28 24.57,-0.56 36.85,-0.84 0.2,-0.05 2.3,-0.56 3.14,-2.6 0.63,-1.53 0.12,-2.91 0,-3.23 -3.15,-5.73 -6.29,-11.46 -9.44,-17.19 -0.46,-1.21 -0.42,-2.56 0.09,-3.75 l 5.54,-12.73 c 1.43,-3.29 -0.98,-6.97 -4.57,-6.97 h -31.72 c -2.75,0.01 -4.98,2.24 -4.98,4.99 z"
         id="path24653" /></g><g
       id="path1092"
       style="fill:url(#linearGradient42037);stroke:url(#linearGradient42039)"><path
         style="color:#000000;fill:url(#linearGradient42033);stroke:none;-inkscape-stroke:none"
         d="m 117.97656,155.06641 c -3.07916,0.0761 -6.12693,1.87886 -7.7207,5.0664 l -18.271485,36.55078 c -1.999608,3.99922 0.736801,9.0646 5.210937,9.03321 h 0.002 l 43.863288,-0.39063 h 0.002 c 4.54362,-0.047 7.18427,-5.29729 4.99219,-9.26953 v -0.002 L 125.92188,159.75 l -0.002,-0.002 c -1.73482,-3.10509 -4.86419,-4.75771 -7.94336,-4.68164 z m 0.10352,4.1914 c 1.57583,-0.0389 3.15451,0.70025 4.17969,2.53516 l 20.12695,36.29297 c 0.78393,1.42674 -0.11397,3.03584 -1.36914,3.04883 l -43.851564,0.38867 c -1.225858,0.009 -2.15203,-1.52602 -1.431641,-2.9668 l 18.269535,-36.54883 c 0.94622,-1.89245 2.50034,-2.71107 4.07617,-2.75 z"
         id="path24657" /><path
         style="color:#000000;fill:url(#linearGradient42035);stroke:none;-inkscape-stroke:none"
         d="m 112.13,161.07 -18.27,36.55 c -1.36,2.72 0.47,6.02 3.32,6 l 43.86,-0.39 c 2.9,-0.03 4.67,-3.46 3.18,-6.16 l -20.13,-36.3 c -2.76,-4.94 -9.42,-4.78 -11.96,0.3 z"
         id="path24659" /></g><g
       id="path1094"
       style="fill:url(#linearGradient42045);stroke:url(#linearGradient42047)"><path
         style="color:#000000;fill:url(#linearGradient42041);stroke:none;-inkscape-stroke:none"
         d="m 111.61914,216.00781 c -3.07999,0.076 -6.13035,1.87593 -7.72461,5.06446 L 85.625,257.62305 c -1.999608,3.99921 0.734848,9.0646 5.208984,9.0332 h 0.002 l 43.863286,-0.39063 h 0.002 c 4.54362,-0.047 7.18623,-5.29534 4.99414,-9.26757 l -0.002,-0.002 -20.13086,-36.30468 h -0.002 c -1.72996,-3.10764 -4.86142,-4.75965 -7.94141,-4.6836 z m 0.10352,4.18946 c 1.5775,-0.039 3.15574,0.69889 4.17578,2.53125 l 20.1289,36.29882 c 0.78393,1.42674 -0.11397,3.03389 -1.36914,3.04688 l -43.853513,0.39062 c -1.225857,0.009 -2.150076,-1.52601 -1.429687,-2.96679 l 18.26953,-36.55078 c 0.94574,-1.89148 2.50062,-2.71105 4.07813,-2.75 z"
         id="path24663" /><path
         style="color:#000000;fill:url(#linearGradient42043);stroke:none;-inkscape-stroke:none"
         d="M 105.77,222.01 87.5,258.56 c -1.36,2.72 0.47,6.02 3.32,6 l 43.86,-0.39 c 2.9,-0.03 4.67,-3.46 3.18,-6.16 l -20.13,-36.3 c -2.75,-4.94 -9.42,-4.78 -11.96,0.3 z"
         id="path24665" /></g><g
       id="path1096"
       style="fill:url(#linearGradient42053);stroke:url(#linearGradient42055)"><path
         style="color:#000000;fill:url(#linearGradient42049);stroke:none;-inkscape-stroke:none"
         d="m 81.386719,154.5625 c -1.46032,0.0799 -2.926437,0.55327 -4.261719,1.49219 l -8.572266,6.03125 v 0.002 c -1.481612,1.04464 -3.312005,1.06479 -4.826172,0.0508 h -0.002 c -2.927414,-1.95827 -5.846272,-3.91818 -8.777343,-5.8789 l -0.002,-0.002 c -5.339149,-3.57871 -12.6012,0.11315 -13.347656,6.60352 -1.279941,11.05949 -2.560027,22.12901 -3.830078,33.18945 v 0.002 c -0.61062,5.34293 3.383086,10.23243 8.662109,10.23243 h 39.371094 c 5.268776,0 9.273711,-4.87412 8.66211,-10.21289 l -3.810547,-33.50782 v -0.002 c -0.560771,-4.9332 -4.885244,-8.23963 -9.265625,-8 z m 0.388672,4.08594 c 2.258408,-0.18128 4.387743,1.52296 4.71289,4.38867 l 3.808594,33.50976 v 0.002 c 0.348397,3.04122 -1.824877,5.54492 -4.496094,5.54492 H 46.429687 c -2.680968,0 -4.847425,-2.50934 -4.498046,-5.56641 1.2698,-11.05825 2.55017,-22.12634 3.830078,-33.18554 v -0.002 c 0.433437,-3.7687 3.990931,-5.51832 6.851562,-3.59961 v 0.002 h 0.002 c 2.928166,1.95877 5.847468,3.91963 8.779297,5.88086 v -0.002 c 2.905333,1.94566 6.714045,1.90692 9.572266,-0.10742 l 8.568359,-6.0293 c 0.719716,-0.50607 1.487432,-0.77551 2.240235,-0.83593 z"
         id="path24669" /><path
         style="color:#000000;fill:url(#linearGradient42051);stroke:none;-inkscape-stroke:none"
         d="m 43.68,163.1 c -1.28,11.06 -2.56,22.13 -3.83,33.19 -0.48,4.2 2.6,7.9 6.58,7.9 H 85.8 c 3.97,0 7.06,-3.69 6.58,-7.88 -1.27,-11.17 -2.54,-22.34 -3.81,-33.51 -0.59,-5.2 -6.13,-7.92 -10.24,-5.03 l -8.57,6.03 c -2.17,1.53 -4.99,1.56 -7.2,0.08 -2.93,-1.96 -5.85,-3.92 -8.78,-5.88 -4.1,-2.75 -9.51,-0.03 -10.1,5.1 z"
         id="path24671" /></g><g
       id="path1106"
       style="fill:url(#linearGradient42061);stroke:url(#linearGradient42063)"><path
         style="color:#000000;fill:url(#linearGradient42057);stroke:none;-inkscape-stroke:none"
         d="m 144.32031,215.99414 c -3.3541,0.0151 -6.11719,2.78233 -6.11719,6.14648 v 38.36915 c 0,3.36415 2.77257,6.13671 6.13672,6.13671 h 0.006 0.006 c 13.44103,-0.08 26.8816,-0.17 40.31055,-0.25 l 0.42969,-0.004 0.39453,-0.16992 c 2.1788,-0.94784 3.27499,-2.47442 3.57812,-3.55274 0.70844,-2.46588 -0.60467,-4.48338 -1.81836,-6.08789 -1.21637,-1.60806 -2.65729,-2.94686 -3.41406,-3.66406 l -0.004,-0.004 -0.004,-0.004 c -1.24471,-1.16659 -2.19214,-1.95832 -2.65039,-2.44336 -0.4559,-0.48256 -0.34123,-0.35176 -0.33789,-0.41211 -2.2e-4,-0.0144 -0.0342,-0.0226 0.22851,-0.30078 0.26574,-0.28137 0.78678,-0.67959 1.38477,-1.22266 l 0.002,-0.002 0.002,-0.002 c 4.47779,-4.08735 4.60094,-10.29499 4.68165,-12.26562 v -0.004 c 0.2912,-6.63852 -2.83064,-13.19122 -7.95899,-16.88867 l -0.004,-0.002 -0.004,-0.002 c -0.79988,-0.57134 -1.50665,-0.97122 -1.95703,-1.21289 l -0.01,-0.004 -0.01,-0.006 c -1.93579,-1.01239 -4.24906,-1.82747 -6.89258,-2.08789 h -0.004 c -0.27313,-0.0272 -0.48197,-0.0384 -0.60547,-0.0508 l -0.10547,-0.01 h -25.25781 z m 0.0195,4.19141 h 25.04883 c 0.20168,0.0174 0.39181,0.031 0.49219,0.041 h 0.002 0.002 c 2.03017,0.19955 3.81073,0.82253 5.35156,1.62696 0.36937,0.19837 0.89927,0.49557 1.49609,0.92187 3.82647,2.76347 6.44014,8.14605 6.21289,13.30273 v 0.002 0.004 c -0.0793,1.93288 -0.45857,6.73722 -3.31836,9.34766 -0.38217,0.34651 -0.9842,0.78142 -1.60937,1.44336 -0.62677,0.66363 -1.3236,1.71003 -1.37305,3.02539 v 0.004 0.002 c -0.0478,1.36733 0.70068,2.612 1.48242,3.43945 0.77922,0.82478 1.68029,1.54755 2.82032,2.61524 0.77322,0.7328 2.0384,1.93595 2.95703,3.15039 0.91862,1.21443 1.16381,2.29764 1.13281,2.40429 l -0.004,0.0117 -0.002,0.0117 c -2.7e-4,9.6e-4 -0.32234,0.30756 -0.9668,0.66797 -13.23668,0.0791 -26.48036,0.16725 -39.72461,0.24609 -1.09584,0 -1.94336,-0.84751 -1.94336,-1.94335 v -38.36915 c 0,-1.09584 0.85747,-1.95018 1.94336,-1.95507 z"
         id="path24675" /><path
         style="color:#000000;fill:url(#linearGradient42059);stroke:none;-inkscape-stroke:none"
         d="m 140.3,222.14 v 38.37 c 0,2.23 1.81,4.04 4.04,4.04 13.44,-0.08 26.88,-0.17 40.31,-0.25 1.77,-0.77 2.25,-1.66 2.4,-2.2 0.75,-2.58 -3.13,-6.21 -4.66,-7.66 -2.39,-2.24 -3.7,-3.03 -3.65,-4.46 0.05,-1.33 1.32,-2.11 2.3,-3 3.67,-3.35 3.92,-8.86 4,-10.81 0.26,-5.9 -2.61,-11.87 -7.09,-15.1 -0.7,-0.5 -1.32,-0.85 -1.73,-1.07 -1.74,-0.91 -3.79,-1.63 -6.13,-1.86 -0.2,-0.02 -0.41,-0.03 -0.61,-0.05 -8.38,0 -16.76,0 -25.15,0 -2.22,0.01 -4.03,1.82 -4.03,4.05 z"
         id="path24677" /></g><g
       id="path1110"
       style="fill:url(#linearGradient42069);stroke:url(#linearGradient42071)"><path
         style="color:#000000;fill:url(#linearGradient42065);stroke:none;-inkscape-stroke:none"
         d="m 152.07031,155.05469 c -3.3541,0.0151 -6.11719,2.78037 -6.11719,6.14453 v 38.37109 c 0,3.36416 2.77257,6.13477 6.13672,6.13477 h 0.006 0.006 c 13.44103,-0.08 26.8816,-0.17001 40.31055,-0.25 l 0.42969,-0.002 0.39453,-0.17187 c 2.17793,-0.94746 3.27448,-2.47058 3.57812,-3.54883 0.71103,-2.46772 -0.60401,-4.48446 -1.81836,-6.08984 -1.21637,-1.60807 -2.65729,-2.94686 -3.41406,-3.66406 l -0.004,-0.004 -0.004,-0.004 c -1.24471,-1.16659 -2.19214,-1.95831 -2.65039,-2.44336 -0.4559,-0.48255 -0.34123,-0.35175 -0.33789,-0.41211 -2.2e-4,-0.0144 -0.0342,-0.0226 0.22851,-0.30078 0.26574,-0.28136 0.78678,-0.67958 1.38477,-1.22265 l 0.002,-0.002 0.002,-0.002 c 4.47779,-4.08735 4.60094,-10.29499 4.68165,-12.26562 v -0.004 c 0.2912,-6.63852 -2.83064,-13.19123 -7.95899,-16.88867 l -0.004,-0.002 -0.004,-0.004 c -0.79988,-0.57134 -1.50665,-0.96927 -1.95703,-1.21094 l -0.01,-0.006 -0.01,-0.004 c -1.93569,-1.01234 -4.24923,-1.82742 -6.89258,-2.08789 -0.27572,-0.0276 -0.48509,-0.0384 -0.60938,-0.0508 l -0.10547,-0.01 H 152.0757 Z m 0.0195,4.1914 h 25.05274 c 0.19936,0.0171 0.38869,0.0291 0.48828,0.0391 h 0.002 0.002 c 2.03412,0.19993 3.81844,0.8261 5.36132,1.63281 5.2e-4,2.7e-4 0.001,-2.7e-4 0.002,0 0.369,0.19841 0.89198,0.49483 1.48437,0.91797 3.82647,2.76347 6.44014,8.14605 6.21289,13.30273 v 0.002 0.004 c -0.0793,1.93288 -0.45857,6.73722 -3.31836,9.34766 -0.38217,0.3465 -0.9842,0.78141 -1.60937,1.44336 -0.62677,0.66363 -1.3236,1.71002 -1.37305,3.02539 v 0.004 0.002 c -0.0478,1.36733 0.70068,2.612 1.48242,3.43945 0.77922,0.82478 1.68029,1.54755 2.82032,2.61523 0.77322,0.7328 2.0384,1.93401 2.95703,3.14844 0.91862,1.21444 1.16381,2.29764 1.13281,2.4043 l -0.004,0.0137 -0.002,0.0117 c -2.7e-4,9.6e-4 -0.31982,0.30593 -0.96875,0.66797 -13.23603,0.0791 -26.47906,0.16726 -39.72266,0.24609 -1.09584,0 -1.94336,-0.84752 -1.94336,-1.94336 v -38.37109 c 0,-1.09584 0.85747,-1.94823 1.94336,-1.95313 z"
         id="path24681" /><path
         style="color:#000000;fill:url(#linearGradient42067);stroke:none;-inkscape-stroke:none"
         d="m 148.05,161.2 v 38.37 c 0,2.23 1.81,4.04 4.04,4.04 13.44,-0.08 26.88,-0.17 40.31,-0.25 1.77,-0.77 2.25,-1.66 2.4,-2.2 0.75,-2.58 -3.13,-6.21 -4.66,-7.66 -2.39,-2.24 -3.7,-3.03 -3.65,-4.46 0.05,-1.33 1.32,-2.11 2.3,-3 3.67,-3.35 3.92,-8.86 4,-10.81 0.26,-5.9 -2.61,-11.87 -7.09,-15.1 -0.7,-0.5 -1.32,-0.85 -1.73,-1.07 -1.74,-0.91 -3.79,-1.63 -6.13,-1.86 -0.2,-0.02 -0.41,-0.03 -0.61,-0.05 -8.38,0 -16.76,0 -25.15,0 -2.22,0.01 -4.03,1.82 -4.03,4.05 z"
         id="path24683" /></g><g
       id="path1116"
       style="fill:url(#linearGradient42077);stroke:url(#linearGradient42079)"><path
         style="color:#000000;fill:url(#linearGradient42073);stroke:none;-inkscape-stroke:none"
         d="m 60.470703,215.14648 c -2.555023,-0.12215 -9.225287,-0.37633 -15.722656,3.64063 l -0.002,0.002 h -0.002 c -3.154727,1.96075 -5.242486,4.26048 -6.230469,5.45703 -2.314639,2.80365 -3.598594,5.54129 -4.306641,7.42578 l -0.03125,0.084 -0.02344,0.0859 c -0.835023,2.9654 -2.569408,10.73598 0.814453,19.40039 l 0.002,0.002 c 1.024431,2.61686 3.445474,8.62677 9.673828,12.64648 h 0.002 v 0.002 c 5.108128,3.29129 11.079541,4.21268 16.216797,3.84765 5.066565,-0.36 9.332003,-1.69607 11.658203,-4.44531 0.241873,0.67892 0.588256,1.45711 1.38086,2.20703 v 0.002 l 0.002,0.002 c 1.672696,1.57586 3.930687,1.78848 6.064453,1.47656 2.133766,-0.31192 4.295589,-1.23131 5.912109,-2.9082 l 0.002,-0.002 c 0.676596,-0.7034 1.323009,-1.7961 1.66211,-3.19922 0.3391,-1.40313 0.544642,-3.23696 0.777343,-6.25196 v -0.002 c 0.465414,-6.11613 0.446536,-9.86875 0.150391,-12.43945 -0.296144,-2.5707 -0.989106,-4.09699 -1.556641,-5.03516 l -0.002,-0.002 -0.002,-0.002 c -1.88077,-3.08817 -4.29551,-4.44484 -4.794922,-4.70703 l -0.0098,-0.004 -0.0098,-0.004 c -0.276061,-0.14157 -1.682497,-0.88551 -3.589844,-1.23828 0.946315,-1.36904 1.297267,-2.88161 1.292969,-4.08789 -0.0049,-1.36221 -0.295148,-2.40626 -0.421875,-2.82227 v -0.002 c -1.386841,-4.62159 -6.102893,-6.6702 -10.1875,-7.78711 -4.085124,-1.11705 -7.975646,-1.30577 -8.716797,-1.3418 z m -0.203125,4.1875 c 0.698848,0.034 4.276538,0.22932 7.816406,1.19727 3.539869,0.96795 6.605474,2.704 7.279297,4.95117 v 0.004 l 0.002,0.006 c 0.05399,0.17698 0.239558,0.88501 0.242188,1.62304 0.0026,0.73804 -0.155928,1.40347 -0.570313,1.88086 -0.697733,0.80434 -2.505397,1.29071 -4.699218,0.54102 l 0.328125,0.14453 c -4.495042,-2.45841 -9.647716,-1.72901 -11.808594,1.83008 -1.668946,2.74978 -0.567987,5.55612 -0.322266,6.24414 l 0.113281,0.31641 0.207032,0.26367 c 0.253993,0.32656 2.521107,3.24236 6.460937,3.26953 3.0668,0.0249 5.885236,-1.71398 7.34961,-4.43164 l -0.08984,0.15039 c 0.330204,-0.50631 0.776394,-1.01777 1.398437,-1.4082 v -0.002 h 0.002 c 2.344529,-1.47446 5.95487,0.11436 6.195313,0.23633 0.305734,0.1605 1.802312,0.94358 3.158203,3.16992 0.410828,0.67921 0.731429,1.22695 0.974609,3.33789 0.243856,2.1168 0.290524,5.66873 -0.164062,11.64258 -0.227216,2.94314 -0.448553,4.66384 -0.671875,5.58789 -0.223399,0.92438 -0.275971,0.93074 -0.609375,1.27735 -0.793658,0.82261 -2.194871,1.47746 -3.498047,1.66796 -1.300755,0.19015 -2.34954,-0.16265 -2.580078,-0.37695 -0.154837,-0.1465 -0.333905,-0.53589 -0.566406,-1.27344 -0.116251,-0.36877 -0.232644,-0.8094 -0.554688,-1.36132 -0.321525,-0.55104 -1.048577,-1.27593 -1.96875,-1.47852 -1.563118,-0.34611 -2.585316,0.47111 -3.197265,1.00586 -0.612859,0.53554 -1.044936,1.11937 -1.105469,1.19336 l -0.002,0.002 -0.002,0.002 c -0.767003,0.94189 -4.422579,2.69925 -8.820313,3.01172 -4.397734,0.31248 -9.506575,-0.5227 -13.648437,-3.1914 v 0.002 c -5.051635,-3.26027 -7.049356,-8.10921 -8.044922,-10.65234 h 0.002 c -2.869578,-7.34758 -1.438765,-14.01408 -0.707031,-16.64063 0.596589,-1.57361 1.659064,-3.83525 3.580078,-6.16211 0.811477,-0.98279 2.604565,-2.94192 5.207031,-4.56054 5.341685,-3.30247 10.848848,-3.13738 13.314453,-3.01954 z m 4.378906,13.23633 c 1.112645,-0.16979 2.525337,-0.0217 4.007813,0.78906 l 0.158203,0.0859 0.169922,0.0586 c 0.436853,0.14928 0.882923,0.19698 1.326172,0.29296 -0.39848,0.42765 -0.979831,0.83301 -1.244141,1.23829 l -0.04883,0.0742 -0.04102,0.0762 c -0.754682,1.40058 -2.176052,2.24135 -3.626953,2.22851 h -0.002 -0.002 c -1.614438,-0.0111 -2.561421,-0.98887 -2.927734,-1.41211 -0.156847,-0.60084 -0.345133,-1.70397 0.02539,-2.31445 0.27956,-0.46045 1.092434,-0.94739 2.205078,-1.11719 z"
         id="path24687" /><path
         style="color:#000000;fill:url(#linearGradient42075);stroke:none;-inkscape-stroke:none"
         d="m 69.66,231.52 c -3.73,-2.04 -7.65,-1.16 -9.01,1.08 -1.05,1.73 -0.34,3.89 -0.14,4.45 0.21,0.27 1.92,2.44 4.82,2.46 2.26,0.02 4.38,-1.27 5.49,-3.33 0.45,-0.69 1.1,-1.45 2.04,-2.04 3.53,-2.22 7.89,-0.05 8.28,0.15 0.4,0.21 2.36,1.28 3.98,3.94 0.98,1.62 2.03,4.14 1.11,16.23 -0.46,5.96 -0.85,7.11 -1.86,8.16 -2.41,2.5 -7.13,3.15 -9.03,1.36 -1.3,-1.23 -1,-3.35 -2.1,-3.59 -0.94,-0.21 -1.96,1.15 -2.23,1.48 -3.07,3.77 -15.98,6.22 -25.23,0.26 -5.64,-3.64 -7.85,-9.07 -8.86,-11.65 -3.14,-8.04 -1.53,-15.3 -0.75,-18.07 0.65,-1.73 1.83,-4.25 3.96,-6.83 0.9,-1.09 2.84,-3.22 5.72,-5.01 5.92,-3.66 12.01,-3.45 14.52,-3.33 1.44,0.07 14.94,0.77 17,7.64 0.18,0.59 0.96,3.52 -0.75,5.49 -1.44,1.66 -4.18,2.1 -6.96,1.15 z"
         id="path24689" /></g><g
       id="path1120"
       style="fill:url(#linearGradient42085);stroke:url(#linearGradient42087)"><path
         style="color:#000000;fill:url(#linearGradient42081);stroke:none;-inkscape-stroke:none"
         d="m 247.38086,155.07422 0.41016,0.041 c -0.40573,-0.0811 -0.72756,-0.11199 -1.375,-0.01 -0.64745,0.10223 -1.50992,0.40509 -2.23633,1.11133 l -0.0117,0.01 -0.01,0.0117 c -0.73422,0.73422 -1.03774,1.61874 -1.13867,2.26758 -0.0505,0.32442 -0.0574,0.60091 -0.0508,0.81641 0.004,0.12329 0.008,0.13827 0.0156,0.21679 v 40.72071 c 0,2.41533 2.00299,4.40625 4.40625,4.40625 h 35.29883 c 2.41533,0 4.40625,-2.00299 4.40625,-4.40625 v -10.72071 c 0,-4.15524 -3.39059,-7.5839 -7.55468,-7.625 l -2.07618,-0.0195 c 0.57193,-0.74421 0.97071,-1.62941 0.97071,-2.625 v -4.60937 c 0,-0.14467 0.0781,-0.21485 0.21484,-0.21485 h 4.0293 c 2.41533,0 4.40625,-2.00298 4.40625,-4.40625 v -10.55859 c 0,-2.41533 -2.00298,-4.40625 -4.40625,-4.40625 z m -0.21484,4.18945 0.006,0.002 h 35.50782 c 0.13673,0 0.21484,0.0702 0.21484,0.21485 v 10.55859 c 0,0.13673 -0.0702,0.21485 -0.21484,0.21485 h -4.0293 c -2.40327,0 -4.40625,1.99092 -4.40625,4.40625 v 4.60937 c 0,0.13673 -0.0702,0.21484 -0.21484,0.21484 h -4.75 c -1.76118,0 -3.21648,1.46033 -3.24414,3.20313 l -0.002,0.0156 v 0.0469 l 0.002,-0.0332 c -0.028,1.7923 1.45872,3.2614 3.20117,3.28906 h 0.006 l 10.25781,0.0996 c 1.9159,0.0189 3.4043,1.52884 3.4043,3.43359 v 10.72071 c 0,0.13673 -0.0702,0.21484 -0.21485,0.21484 h -35.29883 c -0.13672,0 -0.21484,-0.0702 -0.21484,-0.21484 v -40.90625 z"
         id="path24693" /><path
         style="color:#000000;fill:url(#linearGradient42083);stroke:none;-inkscape-stroke:none"
         d="m 245.08,159.47 v 40.79 c 0,1.28 1.04,2.31 2.31,2.31 h 35.3 c 1.28,0 2.31,-1.04 2.31,-2.31 v -10.72 c 0,-3.03 -2.44,-5.5 -5.48,-5.53 l -10.25,-0.1 c -0.63,-0.01 -1.15,-0.52 -1.14,-1.16 0,-0.01 0,-0.02 0,-0.03 0.01,-0.63 0.52,-1.14 1.15,-1.14 h 4.75 c 1.28,0 2.31,-1.04 2.31,-2.31 v -4.61 c 0,-1.28 1.04,-2.31 2.31,-2.31 h 4.03 c 1.28,0 2.31,-1.04 2.31,-2.31 v -10.56 c 0,-1.28 -1.04,-2.31 -2.31,-2.31 h -35.3 c -0.1,-0.02 -1.02,-0.15 -1.74,0.55 -0.71,0.71 -0.57,1.66 -0.56,1.75 z"
         id="path24695" /></g><g
       id="path1122"
       style="fill:url(#linearGradient42093);stroke:url(#linearGradient42095)"><path
         style="color:#000000;fill:url(#linearGradient42089);stroke:none;-inkscape-stroke:none"
         d="m 241.5293,216.54492 0.41211,0.0391 c -0.40573,-0.0811 -0.72756,-0.11199 -1.375,-0.01 -0.64745,0.10223 -1.51187,0.40704 -2.23829,1.11328 l -0.01,0.01 -0.01,0.01 c -0.73422,0.73422 -1.03969,1.61874 -1.14062,2.26758 -0.0505,0.32442 -0.0554,0.60286 -0.0488,0.81836 0.004,0.1233 0.008,0.13828 0.0156,0.2168 v 40.7207 c 0,2.41533 2.00102,4.40625 4.40429,4.40625 h 35.30078 c 2.41533,0 4.40625,-2.00298 4.40625,-4.40625 v -10.7207 c 0,-4.15525 -3.39059,-7.58391 -7.55468,-7.625 l -2.07813,-0.0215 c 0.57219,-0.7443 0.97266,-1.6272 0.97266,-2.62305 v -4.60937 c 0,-0.14467 0.0781,-0.21484 0.21484,-0.21484 h 4.0293 c 2.41533,0 4.40625,-2.00299 4.40625,-4.40625 v -10.56055 c 0,-2.41533 -2.00298,-4.4043 -4.40625,-4.4043 z m -0.21289,4.18945 0.006,0.002 h 35.50781 c 0.13673,0 0.21484,0.0682 0.21484,0.21289 v 10.56055 c 0,0.13673 -0.0702,0.21484 -0.21484,0.21484 h -4.0293 c -2.40327,0 -4.40625,1.99092 -4.40625,4.40625 v 4.60937 c 0,0.13673 -0.0702,0.21289 -0.21484,0.21289 h -4.75 c -1.76118,0 -3.21843,1.46033 -3.2461,3.20313 v 0.0176 0.0137 c -0.028,1.79231 1.46068,3.2614 3.20313,3.28906 h 0.006 l 10.25586,0.0996 c 1.91589,0.0189 3.40625,1.52884 3.40625,3.4336 v 10.7207 c 0,0.13673 -0.0702,0.21289 -0.21485,0.21289 h -35.30078 c -0.13673,0 -0.21289,-0.0682 -0.21289,-0.21289 V 220.8243 Z"
         id="path24699" /><path
         style="color:#000000;fill:url(#linearGradient42091);stroke:none;-inkscape-stroke:none"
         d="m 239.23,220.94 v 40.79 c 0,1.28 1.04,2.31 2.31,2.31 h 35.3 c 1.28,0 2.31,-1.04 2.31,-2.31 v -10.72 c 0,-3.03 -2.44,-5.5 -5.48,-5.53 l -10.25,-0.1 c -0.63,-0.01 -1.15,-0.52 -1.14,-1.16 0,-0.01 0,-0.02 0,-0.03 0.01,-0.63 0.52,-1.14 1.15,-1.14 h 4.75 c 1.28,0 2.31,-1.04 2.31,-2.31 v -4.61 c 0,-1.28 1.04,-2.31 2.31,-2.31 h 4.03 c 1.28,0 2.31,-1.04 2.31,-2.31 v -10.56 c 0,-1.28 -1.04,-2.31 -2.31,-2.31 h -35.3 c -0.1,-0.02 -1.02,-0.15 -1.74,0.55 -0.71,0.71 -0.57,1.66 -0.56,1.75 z"
         id="path24701" /></g><g
       id="path1124"
       style="fill:url(#linearGradient42101);stroke:url(#linearGradient42103)"><path
         style="color:#000000;fill:url(#linearGradient42097);stroke:none;-inkscape-stroke:none"
         d="m 291.80078,155.06445 c -3.43001,0 -6.25586,2.82585 -6.25586,6.25586 v 18.57031 c 0,3.43002 2.82585,6.25586 6.25586,6.25586 h 1.63867 c 1.16998,0 2.06446,0.89448 2.06446,2.06446 v 11.22851 c 0,3.43002 2.82584,6.25586 6.25586,6.25586 h 14.58007 c 3.43002,0 6.25586,-2.82584 6.25586,-6.25586 v -11.22851 c 0,-1.16998 0.89447,-2.06446 2.06446,-2.06446 3.37291,0 6.16621,-2.72813 6.25586,-6.08984 v -0.002 l 0.47851,-18.57032 c 0.0895,-3.49105 -2.76141,-6.41992 -6.25391,-6.41992 z m 0,4.19141 h 33.33984 c 1.1875,0 2.09494,0.93215 2.06446,2.12109 l -0.48047,18.56836 c -0.0313,1.13733 -0.91804,2.00781 -2.06445,2.00781 -3.43002,0 -6.25586,2.8278 -6.25586,6.25782 v 11.22851 c 0,1.16998 -0.89447,2.06446 -2.06446,2.06446 h -14.58007 c -1.16999,0 -2.06446,-0.89448 -2.06446,-2.06446 v -11.22851 c 0,-3.43002 -2.82584,-6.25782 -6.25586,-6.25782 h -1.63867 c -1.16998,0 -2.06445,-0.89251 -2.06445,-2.0625 v -18.57031 c 0,-1.16998 0.89447,-2.06445 2.06445,-2.06445 z"
         id="path24705" /><path
         style="color:#000000;fill:url(#linearGradient42099);stroke:none;-inkscape-stroke:none"
         d="m 287.64,161.32 v 18.57 c 0,2.3 1.86,4.16 4.16,4.16 h 1.64 c 2.3,0 4.16,1.86 4.16,4.16 v 11.23 c 0,2.3 1.86,4.16 4.16,4.16 h 14.58 c 2.3,0 4.16,-1.86 4.16,-4.16 v -11.23 c 0,-2.3 1.86,-4.16 4.16,-4.16 v 0 c 2.26,0 4.1,-1.8 4.16,-4.05 l 0.48,-18.57 c 0.06,-2.34 -1.82,-4.27 -4.16,-4.27 H 291.8 c -2.3,0 -4.16,1.86 -4.16,4.16 z"
         id="path24707" /></g><g
       id="path1126"
       style="fill:url(#linearGradient42109);stroke:url(#linearGradient42111)"><path
         style="color:#000000;fill:url(#linearGradient42105);stroke:none;-inkscape-stroke:none"
         d="m 196.89844,216.59375 c -4.90839,-0.0653 -8.96485,3.9556 -8.96485,8.86719 v 31.83984 c 0,4.86135 3.97696,8.84895 8.83594,8.875 l 20.63672,0.0898 h 0.004 c 0.76845,0 1.55755,-0.089 2.34179,-0.30468 2.80084,-0.76586 8.67795,-2.8973 12.8711,-8.75 l 0.002,-0.002 c 4.15933,-5.81864 4.14062,-11.93273 4.14062,-15.30859 v -0.004 -0.002 c -0.01,-3.6653 0.0187,-12.33207 -6.59179,-18.85547 -4.52107,-4.46552 -9.88714,-5.73706 -12.67188,-6.15234 h -0.004 c -0.40633,-0.0628 -0.83182,-0.10352 -1.27735,-0.10352 -6.43807,-0.0599 -12.87987,-0.12951 -19.32226,-0.18945 z m -0.0566,4.19141 h 0.004 0.004 c 6.44783,0.06 12.8994,0.13138 19.35156,0.1914 h 0.01 0.01 c 0.189,0 0.4173,0.0189 0.64649,0.0547 h 0.006 l 0.008,0.002 c 2.31602,0.34514 6.72822,1.41525 10.3457,4.98828 h 0.002 c 5.28745,5.21637 5.33569,12.21046 5.3457,15.88477 0,3.38384 -3.7e-4,8.16619 -3.35938,12.86523 -3.38677,4.7255 -8.24959,6.51245 -10.56836,7.14649 h -0.002 l -0.002,0.002 c -0.37386,0.10313 -0.78277,0.1543 -1.23242,0.1543 l -20.61914,-0.0899 h -0.002 c -2.60007,-0.015 -4.66211,-2.08561 -4.66211,-4.68359 V 225.461 c 0,-2.62841 2.10324,-4.71051 4.71485,-4.67578 z"
         id="path24711" /><path
         style="color:#000000;fill:url(#linearGradient42107);stroke:none;-inkscape-stroke:none"
         d="m 190.03,225.46 v 31.84 c 0,3.73 3.02,6.76 6.75,6.78 l 20.63,0.09 c 0.61,0 1.21,-0.07 1.79,-0.23 2.56,-0.7 7.93,-2.66 11.72,-7.95 3.76,-5.26 3.75,-10.71 3.75,-14.09 -0.01,-3.67 -0.02,-11.5 -5.97,-17.37 -4.07,-4.02 -8.96,-5.19 -11.51,-5.57 -0.32,-0.05 -0.65,-0.08 -0.97,-0.08 -6.45,-0.06 -12.9,-0.13 -19.35,-0.19 -3.76,-0.05 -6.84,3 -6.84,6.77 z"
         id="path24713" /></g><g
       id="path1130"
       style="fill:url(#linearGradient42117);stroke:url(#linearGradient42119)"><path
         style="color:#000000;fill:url(#linearGradient42113);stroke:none;-inkscape-stroke:none"
         d="m 288.96094,216.36523 c -0.67683,-0.0294 -3.08505,-0.2023 -5.16211,1.44141 h -0.002 v 0.002 c -1.60686,1.27648 -2.15938,2.93905 -2.38476,3.80078 l -0.0684,0.26172 v 0.26953 38.57032 c 0,3.00975 2.48634,5.49414 5.49609,5.49414 h 37.5 c 3.00976,0 5.4961,-2.48439 5.4961,-5.49414 v -38.57032 c 0,-3.00975 -2.48634,-5.49609 -5.4961,-5.49609 h -11.68945 l 0.16992,0.006 c -0.82591,-0.067 -1.99971,-0.1106 -3.40429,0 h -0.004 -0.004 c -1.20548,0.0988 -1.89967,-0.0869 -3.10351,0.6543 -1.27417,0.7786 -1.87053,2.13286 -2.16016,3.40039 -0.28192,1.23377 -0.37832,2.60938 -0.50781,4.25586 -0.96094,-0.728 -2.09902,-1.66986 -3.4707,-2.7793 -3.14969,-2.54751 -6.88616,-5.60702 -11.19532,-5.81445 l -0.004,-0.002 z m -0.1836,4.18946 h 0.002 c 2.13187,0.10826 5.71867,2.43495 8.75,4.88672 1.51765,1.22749 2.91681,2.43263 4.17968,3.33789 0.63144,0.45263 1.21358,0.83934 1.91407,1.12304 0.69842,0.28287 1.82765,0.56578 2.91992,-0.15625 0.27779,-0.18458 0.79487,-0.75313 0.95703,-1.20898 0.16319,-0.45874 0.15567,-0.69923 0.17187,-0.9375 0.0324,-0.47654 0.0418,-1.03534 0.12891,-2.19141 l -0.002,0.006 c 0.13478,-1.70723 0.25684,-3.01042 0.43164,-3.77539 0.17479,-0.76496 0.28718,-0.77566 0.25781,-0.75781 l 0.008,-0.004 0.006,-0.004 c -0.528,0.32611 0.0177,0.0561 1.25,-0.0449 l -0.008,0.002 c 1.13541,-0.0894 2.08224,-0.053 2.73633,0 l 0.084,0.006 h 11.77539 c 0.75024,0 1.30469,0.55444 1.30469,1.30468 v 38.57032 c 0,0.75024 -0.55445,1.30273 -1.30469,1.30273 h -37.5 c -0.75024,0 -1.30468,-0.55249 -1.30468,-1.30273 v -38.15235 c 0.12965,-0.44129 0.37367,-1.0732 0.86914,-1.46679 0.70208,-0.55306 1.6712,-0.56754 2.37304,-0.53711 z"
         id="path24717" /><path
         style="color:#000000;fill:url(#linearGradient42115);stroke:none;-inkscape-stroke:none"
         d="m 283.44,222.14 c 0,12.86 0,25.71 0,38.57 0,1.88 1.52,3.4 3.4,3.4 h 37.5 c 1.88,0 3.4,-1.52 3.4,-3.4 v -38.57 c 0,-1.88 -1.52,-3.4 -3.4,-3.4 -3.9,0 -7.79,0 -11.69,0 -0.74,-0.06 -1.8,-0.1 -3.07,0 -1.22,0.1 -1.84,0.14 -2.18,0.35 -1.25,0.76 -1.42,2.74 -1.69,6.16 -0.18,2.39 -0.06,2.58 -0.32,2.75 -1.86,1.24 -10.08,-9.23 -16.52,-9.54 -0.69,-0.03 -2.38,-0.11 -3.77,0.99 -1.07,0.85 -1.49,2.04 -1.66,2.69 z"
         id="path24719" /></g></g><g
     id="g1331"
     style="fill:url(#linearGradient25224);fill-opacity:1"><path
       id="circle1084"
       class="st1"
       d="m 280.54999,129.92 a 5.2800002,5.2800002 0 0 1 -5.28,5.28 5.2800002,5.2800002 0 0 1 -5.28,-5.28 5.2800002,5.2800002 0 0 1 5.28,-5.28 5.2800002,5.2800002 0 0 1 5.28,5.28 z"
       style="fill:url(#linearGradient42121);fill-opacity:1" /><path
       id="circle1086"
       class="st1"
       d="m 181.64,129.92 a 5.2800002,5.2800002 0 0 1 -5.28,5.28 5.2800002,5.2800002 0 0 1 -5.28,-5.28 5.2800002,5.2800002 0 0 1 5.28,-5.28 5.2800002,5.2800002 0 0 1 5.28,5.28 z"
       style="fill:url(#linearGradient42123);fill-opacity:1" /><path
       id="circle1088"
       class="st1"
       d="m 102.07,128.61 a 5.2800002,5.2800002 0 0 1 -5.279999,5.28 5.2800002,5.2800002 0 0 1 -5.28,-5.28 5.2800002,5.2800002 0 0 1 5.28,-5.28 5.2800002,5.2800002 0 0 1 5.279999,5.28 z"
       style="fill:url(#linearGradient42125);fill-opacity:1" /><path
       id="circle1098"
       class="st1"
       d="m 81.239999,188.77 a 5.2800002,5.2800002 0 0 1 -5.28,5.28 5.2800002,5.2800002 0 0 1 -5.28,-5.28 5.2800002,5.2800002 0 0 1 5.28,-5.28 5.2800002,5.2800002 0 0 1 5.28,5.28 z"
       style="fill:url(#linearGradient42127);fill-opacity:1" /><path
       id="circle1100"
       class="st1"
       d="m 61.35,188.77 a 5.2800002,5.2800002 0 0 1 -5.28,5.28 5.2800002,5.2800002 0 0 1 -5.280001,-5.28 5.2800002,5.2800002 0 0 1 5.280001,-5.28 5.2800002,5.2800002 0 0 1 5.28,5.28 z"
       style="fill:url(#linearGradient42129);fill-opacity:1" /><path
       id="circle1102"
       class="st1"
       d="m 120.48,188.77 a 5.2800002,5.2800002 0 0 1 -5.28,5.28 5.2800002,5.2800002 0 0 1 -5.28,-5.28 5.2800002,5.2800002 0 0 1 5.28,-5.28 5.2800002,5.2800002 0 0 1 5.28,5.28 z"
       style="fill:url(#linearGradient42131);fill-opacity:1" /><path
       id="circle1104"
       class="st1"
       d="m 113.07,250.60001 a 5.2800002,5.2800002 0 0 1 -5.28,5.28 5.2800002,5.2800002 0 0 1 -5.28,-5.28 5.2800002,5.2800002 0 0 1 5.28,-5.28 5.2800002,5.2800002 0 0 1 5.28,5.28 z"
       style="fill:url(#linearGradient42133);fill-opacity:1" /><path
       id="circle1108"
       class="st1"
       d="m 180.62,172.35001 a 5.2800002,5.2800002 0 0 1 -5.28,5.28 5.2800002,5.2800002 0 0 1 -5.28,-5.28 5.2800002,5.2800002 0 0 1 5.28,-5.28 5.2800002,5.2800002 0 0 1 5.28,5.28 z"
       style="fill:url(#linearGradient42135);fill-opacity:1" /><path
       id="circle1112"
       class="st1"
       d="m 175.15,233.12 a 5.2800002,5.2800002 0 0 1 -5.28,5.28 5.2800002,5.2800002 0 0 1 -5.28001,-5.28 5.2800002,5.2800002 0 0 1 5.28001,-5.28001 5.2800002,5.2800002 0 0 1 5.28,5.28001 z"
       style="fill:url(#linearGradient42137);fill-opacity:1" /><path
       id="circle1114"
       class="st1"
       d="m 183.13001,172.35001 a 5.2800002,5.2800002 0 0 1 -5.28,5.28 5.2800002,5.2800002 0 0 1 -5.28,-5.28 5.2800002,5.2800002 0 0 1 5.28,-5.28 5.2800002,5.2800002 0 0 1 5.28,5.28 z"
       style="fill:url(#linearGradient42139);fill-opacity:1" /><path
       id="circle1118"
       class="st1"
       d="m 216.78,189.33 a 5.2800002,5.2800002 0 0 1 -5.28,5.28 5.2800002,5.2800002 0 0 1 -5.28,-5.28 5.2800002,5.2800002 0 0 1 5.28,-5.28 5.2800002,5.2800002 0 0 1 5.28,5.28 z"
       style="fill:url(#linearGradient42141);fill-opacity:1" /><path
       id="circle1128"
       class="st1"
       d="m 221.8,233.12 a 5.2800002,5.2800002 0 0 1 -5.28,5.28 5.2800002,5.2800002 0 0 1 -5.28,-5.28 5.2800002,5.2800002 0 0 1 5.28,-5.28001 5.2800002,5.2800002 0 0 1 5.28,5.28001 z"
       style="fill:url(#linearGradient42143);fill-opacity:1" /><path
       id="circle1132"
       class="st1"
       d="m 303.17999,250.60001 a 5.2800002,5.2800002 0 0 1 -5.28,5.28 5.2800002,5.2800002 0 0 1 -5.28,-5.28 5.2800002,5.2800002 0 0 1 5.28,-5.28 5.2800002,5.2800002 0 0 1 5.28,5.28 z"
       style="fill:url(#linearGradient42145);fill-opacity:1" /></g><text
     xml:space="preserve"
     id="text26292"
     style="font-style:italic;font-variant:normal;font-weight:bold;font-stretch:normal;font-size:14.6667px;font-family:'Comic Sans MS';-inkscape-font-specification:'Comic Sans MS, Bold Italic';font-variant-ligatures:normal;font-variant-caps:normal;font-variant-numeric:normal;font-variant-east-asian:normal;white-space:pre;shape-inside:url(#rect26294);display:inline;opacity:1;fill:#ffffff;fill-opacity:1;fill-rule:evenodd;stroke:none;stroke-width:4.192;stroke-linecap:square;stroke-linejoin:miter;stroke-dasharray:none;stroke-opacity:1;paint-order:stroke fill markers"
     transform="translate(35.251278,-32.242022)"><tspan
       x="259.65625"
       y="310.22977"
       id="tspan42319">.com</tspan></text></g></g>
</svg>
